# xmcd
#
# Track frame offsets:
#	150
#	2096
#	28329
#	44331
#	65456
#	83455
#	102388
#	130764
#	171229
#	182929
#	205728
#	239370
#	257260
#	285486
#
# Disc length: 4318 seconds
#
# Revision: 8
# Processed by: cddbd v1.5.2PL0 Copyright (c) Steve Scherf et al.
# Submitted via: audiograbber 1.83.01
#
DISCID=b910dc0e
DTITLE=Various Artist - Blue Note Trip Maestro (Saturday Night) - cd 1
DYEAR=2003
DGENRE=Jazz
TTITLE0=N.N. - Intro From Blue Note Live At The Roxy
TTITLE1=Donald Byrd - Black Byrd
TTITLE2=Minnie Riperton - I'm A Woman
TTITLE3=Buddy Rich - The Beat Goes On
TTITLE4=Candido - Serenade To A Savage
TTITLE5=EDC - Desire On Fire
TTITLE6=Jimmy McGriff - Deb Sombo
TTITLE7=Donald Byrd - Elijah
TTITLE8=Patti Drew - Fever
TTITLE9=Joe Torres - Soul Cha
TTITLE10=Grant Green - Sookie Sookie
TTITLE11=Richard 'Groove' Holmes - Groovin' For Mr. G
TTITLE12=St. Germain - Rose Rouge
TTITLE13=Ronny Jordan - London Lowdown
EXTD=YEAR: 2003
EXTT0=
EXTT1=
EXTT2=
EXTT3=
EXTT4=
EXTT5=
EXTT6=
EXTT7=
EXTT8=
EXTT9=
EXTT10=
EXTT11=
EXTT12=
EXTT13=
PLAYORDER=
